HIERARCHY
ROOT Root
{
  OFFSET -4.36429 11.8871 9.90712
  CHANNELS 6 Xposition Yposition Zposition Zrotation Xrotation Yrotation
  JOINT Spine
  {
    OFFSET 5.3114 0 0
    CHANNELS 3 Zrotation Xrotation Yrotation
    JOINT Spine1
    {
      OFFSET 2.79004 0 0
      CHANNELS 3 Zrotation Xrotation Yrotation
      JOINT Neck
      {
        OFFSET 1.43377 0 0
        CHANNELS 3 Zrotation Xrotation Yrotation
        JOINT Head
        {
          OFFSET 1.86043 0 0
          CHANNELS 3 Zrotation Xrotation Yrotation
          End Site
          {
            OFFSET 0 0 0
          }
        }
      }
      JOINT LeftArm
      {
        OFFSET 0.0387506 0 2.55754
        CHANNELS 3 Zrotation Xrotation Yrotation
        JOINT LeftForeArm
        {
          OFFSET 4.24845 0 0
          CHANNELS 3 Zrotation Xrotation Yrotation
          JOINT LeftHand
          {
            OFFSET 4.01008 0 0
            CHANNELS 3 Zrotation Xrotation Yrotation
            End Site
            {
              OFFSET 0 0 0
            }
          }
        }
      }
      JOINT RightArm
      {
        OFFSET 0.0387506 0 -2.55754
        CHANNELS 3 Zrotation Xrotation Yrotation
        JOINT RightForeArm
        {
          OFFSET -4.24845 0 0
          CHANNELS 3 Zrotation Xrotation Yrotation
          JOINT RightHand
          {
            OFFSET -4.01009 0 0
            CHANNELS 3 Zrotation Xrotation Yrotation
            End Site
            {
              OFFSET 0 0 0
            }
          }
        }
      }
    }
  }
  JOINT LeftUpLeg
  {
    OFFSET -1.23318 0 2.05692
    CHANNELS 3 Zrotation Xrotation Yrotation
    JOINT LeftLeg
    {
      OFFSET 5.46397 0 0
      CHANNELS 3 Zrotation Xrotation Yrotation
      JOINT LeftFoot
      {
        OFFSET 4.68898 0 0
        CHANNELS 3 Zrotation Xrotation Yrotation
        End Site
        {
          OFFSET 0 0 0
        }
      }
    }
  }
  JOINT RightUpLeg
  {
    OFFSET -1.24454 0 -2.05007
    CHANNELS 3 Zrotation Xrotation Yrotation
    JOINT RightLeg
    {
      OFFSET -5.46397 0 0
      CHANNELS 3 Zrotation Xrotation Yrotation
      JOINT RightFoot
      {
        OFFSET -4.68901 0 0
        CHANNELS 3 Zrotation Xrotation Yrotation
        End Site
        {
          OFFSET 0 0 0
        }
      }
    }
  }
}
MOTION
Frames:	19
Frame Time:	0.00833333
-4.36429 11.8871 9.90712 -0 90 90 9.69808e-018 1.34041e-020 0.158382 1.41245e-030 7.06225e-031 2.48481e-017 -7.30747e-017 7.61111e-019 -1.19349 3.40995e-017 1.65719e-019 0.556895 -2.12238e-008 -1.53545e-005 -90.1584 -2.50273e-005 -2.47192e-012 6.55612e-006 1.52588e-005 -6.98387e-015 174.455 180 -4.60993e-005 -89.8417 -5.49628e-005 -2.25992e-011 3.612e-005 1.52588e-005 6.98387e-015 174.455 -3.96499 -0.249876 -175.995 -8.60175 0.176748 -0.869965 4.63073 -0.0778864 176.868 177.959 -0.126939 -176.037 -4.425 0.0845874 -0.877184 2.38097 -0.0336168 176.598 
-4.1961 11.883 9.74458 -91.885 60.581 179.224 -0.808365 0.59861 1.01145 2.05753 0.213762 0.507893 -4.59698 1.18123 -0.129666 8.51452 2.16118 -2.57025 15.006 -6.55282 -111.069 25.5186 8.07619 9.58558 -1.08273 -12.1454 174.371 -172.394 -3.4383 -111.789 19.3148 4.7579 8.8809 -1.47432 -16.2886 174.299 -11.7822 -2.59463 -176.668 -12.5249 -0.0669298 -0.916778 8.03842 -2.99874 177.785 174.864 -1.98117 -177.14 -10.894 -0.0922296 -0.964806 1.18334 2.96342 176.958 
-4.02146 11.879 9.57402 -94.8231 29.4627 179.1 -1.67947 1.2329 1.91845 4.22595 0.440219 1.04418 -9.49879 2.43287 0.998986 17.7647 4.43312 -5.89625 24.4552 -24.9016 -128.952 49.4943 15.84 20.3255 -2.32993 -24.9367 173.98 -168.379 -13.423 -133.917 38.1364 9.40454 18.4623 -3.30931 -33.4472 173.532 -20.0997 -5.05041 -177.383 -16.6941 -0.325027 -0.966834 11.7383 -6.072 178.748 171.495 -3.94262 -178.309 -17.7446 -0.27986 -1.05784 -0.11135 6.13661 177.331 
-3.85973 11.8749 9.4195 -97.6471 1.74942 178.856 -2.47857 1.79409 2.71877 6.16124 0.641085 1.52376 -13.9227 3.54154 2.00188 26.2518 6.413 -8.87504 24.2567 -46.8498 -143.082 68.34 21.4373 30.8045 -3.69568 -36.4175 173.264 -171.009 -25.1474 -153.813 53.6036 12.8947 27.2932 -5.72342 -48.8113 171.902 -27.5818 -7.29172 -178.009 -20.3725 -0.554266 -1.01046 15.135 -8.84673 179.622 168.459 -5.69605 -179.349 -23.8338 -0.445834 -1.14008 -1.32382 8.96279 177.663 
-3.73024 11.8703 9.30511 -99.8145 -17.457 178.537 -3.05916 2.1742 3.25127 7.52178 0.778167 1.86152 -17.0575 4.29553 2.68621 32.3256 7.73273 -10.9362 14.6467 -63.0454 -157.617 80.2275 24.2868 38.6543 -4.95622 -44.6395 172.419 -177.528 -32.8753 -169.319 63.717 14.8099 33.6247 -8.62113 -59.7302 169.498 -32.8588 -8.99257 -178.415 -22.8233 -0.711373 -1.03795 17.5801 -10.8728 -179.738 166.408 -6.92695 179.938 -28.0183 -0.557693 -1.1953 -2.25319 10.9181 177.906 
-3.64577 11.8654 9.24699 -100.749 -24.7664 178.351 -3.3167 2.30532 3.40849 8.08117 0.826785 1.9969 -18.351 4.54921 2.93073 34.8051 8.16597 -11.6867 5.63415 -68.9872 -167.537 84.7823 25.2002 41.8606 -5.64782 -48.3347 171.905 178.776 -34.9026 -176.057 67.539 15.4197 36.1365 -10.5952 -64.5111 167.731 -35.0028 -9.98595 -178.515 -23.5249 -0.767259 -1.04226 18.6143 -11.8654 -179.43 165.809 -7.41435 179.69 -29.5288 -0.593438 -1.21242 -2.75217 11.6457 178.023 
-3.59348 11.8601 9.22905 -100.671 -23.5804 178.372 -3.34005 2.25871 3.29741 8.06913 0.812219 1.98789 -18.3202 4.44649 2.85981 34.6688 7.98019 -11.4918 7.22678 -68.4188 -165.642 84.5819 25.2886 41.5752 -5.74168 -48.8043 171.836 179.29 -33.5961 -175.382 67.1183 15.3562 35.8569 -10.8114 -64.9567 167.537 -34.8945 -10.4714 -178.395 -22.9785 -0.750859 -1.03003 18.6174 -12.1197 -179.364 166.263 -7.37176 179.777 -29.1296 -0.574836 -1.20233 -2.93508 11.4967 178.051 
-3.55424 11.8544 9.22704 -100.187 -18.9861 178.474 -3.27074 2.1355 3.07841 7.8286 0.771261 1.92712 -17.7524 4.21108 2.64782 33.4797 7.56498 -10.907 12.759 -65.1703 -159.321 82.4867 25.0519 39.8815 -5.56961 -47.9581 171.971 -178.696 -30.9858 -171.808 65.0222 15.0345 34.4693 -10.1812 -63.6526 168.117 -33.8727 -10.6732 -178.176 -21.9811 -0.70593 -1.01213 18.1907 -12.0575 -179.404 167.129 -7.13773 179.993 -27.9777 -0.535073 -1.18176 -2.99006 11.0084 178.043 
-3.50896 11.8484 9.21667 -99.9119 -16.0707 178.528 -3.24959 2.03693 2.9118 7.70251 0.740701 1.90724 -17.4343 4.06674 2.46901 32.7952 7.31126 -10.4862 15.2821 -63.113 -156.176 81.3087 24.9439 38.8866 -5.51806 -47.7032 172.013 -177.653 -29.0285 -169.728 63.8085 14.8582 33.6594 -9.96019 -63.1687 168.321 -33.2804 -10.8159 -177.98 -21.3301 -0.676233 -0.999405 17.9426 -12.0998 -179.414 167.769 -7.05088 -179.867 -27.2304 -0.507339 -1.16742 -3.10675 10.7185 178.053 
-3.45443 11.8421 9.19411 -99.9272 -15.6848 178.528 -3.2925 1.96853 2.82235 7.74846 0.724151 1.9537 -17.4975 4.06027 2.33406 32.8656 7.30469 -10.3037 15.2039 -63.0823 -156.057 81.5499 25.0908 38.9368 -5.6535 -48.3917 171.913 -177.633 -28.149 -169.672 63.9181 14.9161 33.7011 -10.3062 -63.9407 168.011 -33.336 -10.9009 -177.818 -21.1596 -0.668837 -0.993788 17.9663 -12.3048 -179.375 168.085 -7.17942 -179.842 -27.0774 -0.497202 -1.16218 -3.31 10.7228 178.089 
-3.4002 11.8355 9.17141 -99.938 -15.2838 178.531 -3.33185 1.88346 2.73056 7.79485 0.704055 2.01685 -17.5488 4.07656 2.16199 32.9163 7.34254 -10.0887 15.0263 -63.0352 -156.037 81.7809 25.2317 38.9838 -5.7882 -49.0584 171.812 -177.597 -27.3113 -169.552 64.0604 14.9911 33.7557 -10.6558 -64.679 167.696 -33.3719 -10.8278 -177.633 -21.0708 -0.661938 -0.989809 17.9604 -12.4658 -179.353 168.392 -7.35006 -179.828 -26.9413 -0.488056 -1.15766 -3.50753 10.7505 178.126 
-3.34633 11.8283 9.1482 -99.9521 -14.8628 178.533 -3.38129 1.80449 2.64026 7.84099 0.685461 2.07662 -17.5835 4.09686 1.98919 32.9494 7.38841 -9.87429 14.7799 -62.959 -156.097 81.9917 25.3604 39.0264 -5.90772 -49.6351 171.721 -177.558 -26.4549 -169.412 64.2491 15.0912 33.827 -11.0032 -65.3741 167.382 -33.4011 -10.6691 -177.442 -21.0605 -0.655982 -0.987244 17.9413 -12.6074 -179.341 168.68 -7.53951 -179.812 -26.8278 -0.479825 -1.15367 -3.71246 10.7889 178.163 
-3.29283 11.8204 9.12411 -99.9773 -14.4169 178.535 -3.45429 1.75443 2.55526 7.88615 0.673418 2.11295 -17.5975 4.10241 1.85207 32.9672 7.4059 -9.69372 14.4956 -62.841 -156.217 82.1726 25.4708 39.0629 -5.99636 -50.0542 171.653 -177.527 -25.5192 -169.295 64.4981 15.2242 33.9192 -11.3415 -66.0167 167.073 -33.4353 -10.4973 -177.258 -21.1256 -0.651416 -0.98587 17.9258 -12.7541 -179.329 168.936 -7.72442 -179.782 -26.7425 -0.472435 -1.15001 -3.93788 10.8252 178.202 
-3.23985 11.8112 9.09914 -100.021 -13.9409 178.531 -3.56227 1.75298 2.47894 7.9287 0.672201 2.10768 -17.5723 4.08241 1.77202 32.942 7.37722 -9.5554 14.2005 -62.6783 -156.365 82.3178 25.5594 39.0921 -6.04394 -50.2761 171.617 -177.498 -24.4764 -169.238 64.8139 15.3933 34.0362 -11.6757 -66.6203 166.767 -33.4787 -10.3493 -177.085 -21.2744 -0.649652 -0.985552 17.9822 -12.9177 -179.299 169.155 -7.89405 -179.738 -26.685 -0.466148 -1.14615 -4.19724 10.8596 178.245 
-3.18733 11.8011 9.07346 -100.076 -13.4386 178.524 -3.69519 1.78346 2.40845 7.96948 0.678142 2.07579 -17.516 4.04881 1.72574 32.8823 7.3245 -9.4418 13.874 -62.4772 -156.559 82.4335 25.6301 39.1147 -6.05867 -50.3444 171.605 -177.467 -23.3626 -169.206 65.1876 15.5934 34.1753 -12.0036 -67.1847 166.465 -33.5251 -10.1806 -176.914 -21.5055 -0.650022 -0.986433 18.0806 -13.0834 -179.26 169.342 -8.06236 -179.684 -26.6528 -0.460909 -1.14234 -4.48028 10.8978 178.292 
-3.13501 11.7907 9.04693 -100.133 -12.9189 178.523 -3.83443 1.81406 2.33833 8.01149 0.684369 2.04688 -17.4644 4.01701 1.68261 32.8449 7.27113 -9.34726 13.4776 -62.2386 -156.851 82.5285 25.688 39.133 -6.05235 -50.3151 171.61 -177.447 -22.2134 -169.141 65.6095 15.8205 34.3307 -12.3047 -67.6802 166.187 -33.5701 -9.94161 -176.747 -21.8016 -0.649847 -0.98871 18.0891 -13.2357 -179.247 169.511 -8.24298 -179.618 -26.6489 -0.45617 -1.13962 -4.7644 10.9351 178.337 
-3.08266 11.7807 9.01942 -100.179 -12.3905 178.534 -3.9615 1.81294 2.2631 8.05773 0.684012 2.05056 -17.4534 4.00241 1.61204 32.8867 7.2405 -9.26608 12.9749 -61.9628 -157.291 82.611 25.7384 39.149 -6.03718 -50.2447 171.622 -177.455 -21.0649 -168.987 66.0701 16.0705 34.4966 -12.5553 -68.0769 165.955 -33.6098 -9.58267 -176.587 -22.1454 -0.64645 -0.992579 17.8758 -13.359 -179.295 169.669 -8.44956 -179.537 -26.6764 -0.451384 -1.13903 -5.02698 10.967 178.379 
-3.03025 11.7706 8.99102 -100.226 -11.8387 178.557 -4.08851 1.76853 2.1865 8.11305 0.675723 2.11063 -17.5047 4.0167 1.48862 33.0457 7.2477 -9.20169 12.3099 -61.6327 -157.953 82.6937 25.7889 39.1652 -6.01692 -50.1502 171.637 -177.486 -19.9396 -168.706 66.5932 16.3567 34.6815 -12.77 -68.406 165.756 -33.653 -9.04718 -176.426 -22.5388 -0.638247 -0.997707 17.3684 -13.4434 -179.424 169.798 -8.69994 -179.443 -26.7447 -0.446337 -1.14148 -5.27538 10.9977 178.418 
-2.9779 11.7603 8.96176 -100.275 -11.2645 178.588 -4.2198 1.69883 2.10973 8.17453 0.663004 2.20601 -17.595 4.04912 1.33441 33.2837 7.27735 -9.15545 11.5323 -61.2499 -158.777 82.7687 25.8347 39.1797 -5.98507 -50.0011 171.662 -177.544 -18.8148 -168.338 67.1741 16.676 34.8859 -12.9474 -68.6705 165.591 -33.7005 -8.37619 -176.264 -22.989 -0.626954 -1.00412 16.6493 -13.4988 -179.612 169.899 -8.98212 -179.336 -26.8494 -0.441345 -1.14619 -5.51717 11.0278 178.456 
